<svg xmlns="http://www.w3.org/2000/svg" width="1024" height="1024" viewBox="0 0 1024 1024">
<g>
<path d="M 547.75 848.28 C542.66,848.57 537.60,849.06 536.50,849.36 C533.03,850.33 530.40,848.37 525.72,841.33 C516.17,826.95 510.04,798.83 510.01,769.25 C510.00,761.12 509.79,760.00 508.25,759.98 C500.89,759.92 476.00,757.73 469.50,756.57 C446.94,752.56 419.82,738.82 388.30,715.43 C372.45,703.67 346.27,677.51 338.83,666.00 C326.19,646.44 319.52,630.79 315.17,610.50 C312.80,599.45 312.59,596.52 312.57,573.50 C312.53,543.84 313.97,530.18 320.64,496.50 C326.70,465.94 329.75,456.96 343.57,429.00 C355.47,404.91 361.00,390.87 361.00,384.72 C361.00,382.80 360.26,378.94 359.36,376.14 C357.34,369.90 357.82,369.14 366.45,365.03 C376.88,360.04 387.14,352.65 395.08,344.39 C410.36,328.50 420.00,308.40 420.00,292.45 L 420.00 288.27 L 426.46 287.76 C430.93,287.40 434.30,286.43 437.40,284.61 C448.99,277.82 459.00,262.95 459.00,252.52 C459.00,247.35 459.03,247.29 463.25,245.42 C477.21,239.25 490.11,214.25 488.49,196.50 C487.74,188.21 483.96,176.30 480.46,171.17 C477.35,166.60 478.62,166.06 486.61,168.58 C492.97,170.58 501.10,177.29 503.93,182.89 C509.86,194.60 511.65,215.58 508.01,230.75 C502.74,252.72 497.29,262.82 459.24,321.00 C440.86,349.12 432.24,363.79 426.97,375.94 C416.02,401.19 407.05,440.09 404.91,471.61 C402.91,500.94 406.28,525.87 415.63,551.00 C422.29,568.91 429.25,579.30 443.97,593.31 C454.51,603.34 465.22,610.22 479.93,616.42 C496.08,623.22 509.99,626.22 529.89,627.19 L 536.28 627.50 L 538.67 619.00 C543.59,601.43 551.20,568.99 553.68,555.00 C555.89,542.53 556.31,536.66 556.73,513.00 C557.59,465.15 551.93,418.74 541.10,384.76 C538.43,376.37 535.02,365.45 533.52,360.50 C532.03,355.55 529.07,347.23 526.95,342.00 C524.83,336.77 521.53,328.45 519.61,323.50 C514.01,309.01 505.02,289.68 502.75,287.25 C501.15,285.53 501.00,285.00 502.14,285.00 C504.28,285.00 508.16,289.46 513.02,297.50 C515.35,301.35 519.61,307.88 522.50,312.00 C528.71,320.87 532.80,328.82 541.02,348.04 C547.32,362.79 557.45,392.59 560.87,406.50 C569.98,443.45 574.45,481.99 574.34,522.50 C574.25,554.51 572.33,569.16 563.34,606.31 C560.84,616.66 559.09,625.43 559.46,625.79 C559.82,626.15 565.15,625.19 571.31,623.65 C597.31,617.15 617.92,602.38 638.51,575.50 C649.88,560.65 654.58,550.41 660.71,527.12 C664.12,514.14 664.29,512.75 664.22,497.68 L 664.15 481.85 L 666.32 483.25 C669.04,485.00 680.68,501.92 685.30,510.84 C690.20,520.28 698.35,545.37 701.12,559.50 C703.27,570.46 703.47,574.03 703.43,600.50 C703.39,627.21 703.22,630.12 701.19,637.41 C694.34,662.11 671.46,695.66 647.22,716.55 C622.44,737.89 586.24,752.16 543.25,757.53 L 538.00 758.19 L 538.00 774.03 C538.00,784.16 538.53,792.32 539.46,796.68 C542.33,810.05 548.11,827.61 552.52,836.36 C554.98,841.25 557.00,845.82 557.00,846.51 C557.00,847.38 554.22,847.92 547.75,848.28 Z" fill="rgb(0,1,0)"/>
<path d="M 0.00 512.00 L 0.00 0.00 L 512.00 0.00 L 1024.00 0.00 L 1024.00 512.00 L 1024.00 1024.00 L 512.00 1024.00 L 0.00 1024.00 L 0.00 512.00 ZM 547.75 848.28 C554.22,847.92 557.00,847.38 557.00,846.51 C557.00,845.82 554.98,841.25 552.52,836.36 C548.11,827.61 542.33,810.05 539.46,796.68 C538.53,792.32 538.00,784.16 538.00,774.03 L 538.00 758.19 L 543.25 757.53 C586.24,752.16 622.44,737.89 647.22,716.55 C671.46,695.66 694.34,662.11 701.19,637.41 C703.22,630.12 703.39,627.21 703.43,600.50 C703.47,574.03 703.27,570.46 701.12,559.50 C698.35,545.37 690.20,520.28 685.30,510.84 C680.68,501.92 669.04,485.00 666.32,483.25 L 664.15 481.85 L 664.22 497.68 C664.29,512.75 664.12,514.14 660.71,527.12 C654.58,550.41 649.88,560.65 638.51,575.50 C617.92,602.38 597.31,617.15 571.31,623.65 C565.15,625.19 559.82,626.15 559.46,625.79 C559.09,625.43 560.84,616.66 563.34,606.31 C572.33,569.16 574.25,554.51 574.34,522.50 C574.45,481.99 569.98,443.45 560.87,406.50 C557.45,392.59 547.32,362.79 541.02,348.04 C532.80,328.82 528.71,320.87 522.50,312.00 C519.61,307.88 515.35,301.35 513.02,297.50 C508.16,289.46 504.28,285.00 502.14,285.00 C501.00,285.00 501.15,285.53 502.75,287.25 C505.02,289.68 514.01,309.01 519.61,323.50 C521.53,328.45 524.83,336.77 526.95,342.00 C529.07,347.23 532.03,355.55 533.52,360.50 C535.02,365.45 538.43,376.37 541.10,384.76 C551.93,418.74 557.59,465.15 556.73,513.00 C556.31,536.66 555.89,542.53 553.68,555.00 C551.20,568.99 543.59,601.43 538.67,619.00 L 536.28 627.50 L 529.89 627.19 C509.99,626.22 496.08,623.22 479.93,616.42 C465.22,610.22 454.51,603.34 443.97,593.31 C429.25,579.30 422.29,568.91 415.63,551.00 C406.28,525.87 402.91,500.94 404.91,471.61 C407.05,440.09 416.02,401.19 426.97,375.94 C432.24,363.79 440.86,349.12 459.24,321.00 C497.29,262.82 502.74,252.72 508.01,230.75 C511.65,215.58 509.86,194.60 503.93,182.89 C501.10,177.29 492.97,170.58 486.61,168.58 C478.62,166.06 477.35,166.60 480.46,171.17 C483.96,176.30 487.74,188.21 488.49,196.50 C490.11,214.25 477.21,239.25 463.25,245.42 C459.03,247.29 459.00,247.35 459.00,252.52 C459.00,262.95 448.99,277.82 437.40,284.61 C434.30,286.43 430.93,287.40 426.46,287.76 L 420.00 288.27 L 420.00 292.45 C420.00,308.40 410.36,328.50 395.08,344.39 C387.14,352.65 376.88,360.04 366.45,365.03 C357.82,369.14 357.34,369.90 359.36,376.14 C360.26,378.94 361.00,382.80 361.00,384.72 C361.00,390.87 355.47,404.91 343.57,429.00 C329.75,456.96 326.70,465.94 320.64,496.50 C313.97,530.18 312.53,543.84 312.57,573.50 C312.59,596.52 312.80,599.45 315.17,610.50 C319.52,630.79 326.19,646.44 338.83,666.00 C346.27,677.51 372.45,703.67 388.30,715.43 C419.82,738.82 446.94,752.56 469.50,756.57 C476.00,757.73 500.89,759.92 508.25,759.98 C509.79,760.00 510.00,761.12 510.01,769.25 C510.04,798.83 516.17,826.95 525.72,841.33 C530.40,848.37 533.03,850.33 536.50,849.36 C537.60,849.06 542.66,848.57 547.75,848.28 Z" fill="rgb(254,254,254)"/>
</g>
</svg>